<svg width="50" height="50" viewBox="0 0 50 50" fill="none" xmlns="http://www.w3.org/2000/svg">
<circle cx="25" cy="25" r="25" fill="#D9D9D9"/>
<mask id="path-2-outside-1_897_2" maskUnits="userSpaceOnUse" x="22" y="12" width="6" height="25" fill="black">
<rect fill="white" x="22" y="12" width="6" height="25"/>
<path d="M25.0117 29.3086C24.707 29.3086 24.457 29.2148 24.2617 29.0273C24.0664 28.8398 23.9648 28.5859 23.957 28.2656L23.8281 14.6133C23.8281 14.2773 23.9453 14.0078 24.1797 13.8047C24.4141 13.5938 24.6875 13.4883 25 13.4883C25.3203 13.4883 25.5938 13.5938 25.8203 13.8047C26.0547 14.0078 26.1719 14.2773 26.1719 14.6133L26.0664 28.2656C26.0664 28.5859 25.9688 28.8398 25.7734 29.0273C25.5781 29.2148 25.3242 29.3086 25.0117 29.3086ZM25 35.7656C24.6953 35.7656 24.418 35.6914 24.168 35.543C23.918 35.3945 23.7148 35.1914 23.5586 34.9336C23.4102 34.6836 23.3359 34.4062 23.3359 34.1016C23.3359 33.7969 23.4102 33.5156 23.5586 33.2578C23.7148 33.0078 23.918 32.8086 24.168 32.6602C24.418 32.5117 24.6953 32.4375 25 32.4375C25.3125 32.4375 25.5938 32.5117 25.8438 32.6602C26.0938 32.8086 26.293 33.0078 26.4414 33.2578C26.5898 33.5156 26.6641 33.7969 26.6641 34.1016C26.6641 34.4062 26.5898 34.6836 26.4414 34.9336C26.293 35.1914 26.0938 35.3945 25.8438 35.543C25.5938 35.6914 25.3125 35.7656 25 35.7656Z"/>
</mask>
<path d="M25.0117 29.3086C24.707 29.3086 24.457 29.2148 24.2617 29.0273C24.0664 28.8398 23.9648 28.5859 23.957 28.2656L23.8281 14.6133C23.8281 14.2773 23.9453 14.0078 24.1797 13.8047C24.4141 13.5938 24.6875 13.4883 25 13.4883C25.3203 13.4883 25.5938 13.5938 25.8203 13.8047C26.0547 14.0078 26.1719 14.2773 26.1719 14.6133L26.0664 28.2656C26.0664 28.5859 25.9688 28.8398 25.7734 29.0273C25.5781 29.2148 25.3242 29.3086 25.0117 29.3086ZM25 35.7656C24.6953 35.7656 24.418 35.6914 24.168 35.543C23.918 35.3945 23.7148 35.1914 23.5586 34.9336C23.4102 34.6836 23.3359 34.4062 23.3359 34.1016C23.3359 33.7969 23.4102 33.5156 23.5586 33.2578C23.7148 33.0078 23.918 32.8086 24.168 32.6602C24.418 32.5117 24.6953 32.4375 25 32.4375C25.3125 32.4375 25.5938 32.5117 25.8438 32.6602C26.0938 32.8086 26.293 33.0078 26.4414 33.2578C26.5898 33.5156 26.6641 33.7969 26.6641 34.1016C26.6641 34.4062 26.5898 34.6836 26.4414 34.9336C26.293 35.1914 26.0938 35.3945 25.8438 35.543C25.5938 35.6914 25.3125 35.7656 25 35.7656Z" fill="white"/>
<path d="M23.957 28.2656L22.9571 28.2751L22.9571 28.2825L22.9573 28.29L23.957 28.2656ZM23.8281 14.6133H22.8281L22.8282 14.6227L23.8281 14.6133ZM24.1797 13.8047L24.8346 14.5604L24.8417 14.5542L24.8487 14.548L24.1797 13.8047ZM25.8203 13.8047L25.1389 14.5366L25.1519 14.5487L25.1654 14.5604L25.8203 13.8047ZM26.1719 14.6133L27.1719 14.621V14.6133H26.1719ZM26.0664 28.2656L25.0664 28.2579V28.2656H26.0664ZM23.5586 34.9336L22.6987 35.4442L22.7034 35.4519L23.5586 34.9336ZM23.5586 33.2578L22.7106 32.7278L22.701 32.7432L22.692 32.7588L23.5586 33.2578ZM26.4414 33.2578L27.3081 32.7588L27.3013 32.7473L26.4414 33.2578ZM26.4414 34.9336L25.5815 34.423L25.5748 34.4346L26.4414 34.9336ZM25.0117 28.3086C24.9626 28.3086 24.9449 28.3012 24.9468 28.302C24.9473 28.3021 24.9496 28.3031 24.9524 28.3049C24.9552 28.3067 24.9559 28.3075 24.9543 28.306L23.5692 29.7487C23.9746 30.1379 24.484 30.3086 25.0117 30.3086V28.3086ZM24.9543 28.306C24.9559 28.3076 24.9592 28.3111 24.9626 28.3162C24.9642 28.3185 24.9654 28.3206 24.9663 28.3223C24.9672 28.324 24.9676 28.325 24.9675 28.3249C24.9675 28.3248 24.967 28.3234 24.9661 28.3205C24.9653 28.3175 24.9641 28.3129 24.9628 28.3063C24.9603 28.293 24.9575 28.2719 24.9567 28.2412L22.9573 28.29C22.9703 28.8221 23.1491 29.3454 23.5692 29.7487L24.9543 28.306ZM24.957 28.2562L24.8281 14.6038L22.8282 14.6227L22.9571 28.2751L24.957 28.2562ZM24.8281 14.6133C24.8281 14.5875 24.8304 14.5716 24.8319 14.5638C24.8333 14.5563 24.8343 14.5551 24.8331 14.5579C24.8318 14.5609 24.8299 14.5641 24.8283 14.5663C24.8267 14.5683 24.8279 14.5662 24.8346 14.5604L23.5248 13.049C23.0514 13.4592 22.8281 14.0146 22.8281 14.6133H24.8281ZM24.8487 14.548C24.9012 14.5007 24.937 14.4883 25 14.4883V12.4883C24.438 12.4883 23.9269 12.6868 23.5107 13.0614L24.8487 14.548ZM25 14.4883C25.0772 14.4883 25.1044 14.5045 25.1389 14.5366L26.5017 13.0728C26.0831 12.683 25.5635 12.4883 25 12.4883V14.4883ZM25.1654 14.5604C25.1721 14.5662 25.1733 14.5683 25.1717 14.5663C25.1701 14.5641 25.1682 14.5609 25.1669 14.5579C25.1657 14.5551 25.1667 14.5563 25.1681 14.5638C25.1696 14.5716 25.1719 14.5875 25.1719 14.6133H27.1719C27.1719 14.0146 26.9486 13.4592 26.4752 13.049L25.1654 14.5604ZM25.1719 14.6056L25.0664 28.2579L27.0664 28.2733L27.1718 14.621L25.1719 14.6056ZM25.0664 28.2656C25.0664 28.3244 25.0575 28.3433 25.0598 28.3373C25.0609 28.3345 25.0636 28.3285 25.0684 28.3213C25.0733 28.314 25.078 28.3088 25.0809 28.306L26.466 29.7487C26.8935 29.3383 27.0664 28.8043 27.0664 28.2656H25.0664ZM25.0809 28.306C25.0805 28.3064 25.0821 28.3048 25.0853 28.3028C25.0885 28.3008 25.0906 28.3 25.0901 28.3002C25.0898 28.3003 25.0677 28.3086 25.0117 28.3086V30.3086C25.5395 30.3086 26.0556 30.1426 26.466 29.7487L25.0809 28.306ZM25 34.7656C24.866 34.7656 24.7665 34.7353 24.6785 34.6831L23.6574 36.4028C24.0695 36.6475 24.5246 36.7656 25 36.7656V34.7656ZM24.6785 34.6831C24.575 34.6217 24.4882 34.5381 24.4138 34.4153L22.7034 35.4519C22.9415 35.8448 23.2609 36.1674 23.6574 36.4028L24.6785 34.6831ZM24.4184 34.4231C24.3662 34.3351 24.3359 34.2356 24.3359 34.1016H22.3359C22.3359 34.5769 22.4541 35.0321 22.6987 35.4441L24.4184 34.4231ZM24.3359 34.1016C24.3359 33.9676 24.3664 33.859 24.4252 33.7568L22.692 32.7588C22.454 33.1722 22.3359 33.6262 22.3359 34.1016H24.3359ZM24.4066 33.7878C24.4795 33.6711 24.5677 33.5858 24.6785 33.52L23.6574 31.8003C23.2683 32.0314 22.9502 32.3445 22.7106 32.7278L24.4066 33.7878ZM24.6785 33.52C24.7665 33.4678 24.866 33.4375 25 33.4375V31.4375C24.5246 31.4375 24.0695 31.5556 23.6574 31.8003L24.6785 33.52ZM25 33.4375C25.1468 33.4375 25.2493 33.4702 25.3332 33.52L26.3543 31.8003C25.9382 31.5533 25.4782 31.4375 25 31.4375V33.4375ZM25.3332 33.52C25.4394 33.5831 25.5185 33.6622 25.5816 33.7684L27.3013 32.7473C27.0674 32.3535 26.7481 32.0341 26.3543 31.8003L25.3332 33.52ZM25.5748 33.7568C25.6336 33.859 25.6641 33.9676 25.6641 34.1016H27.6641C27.6641 33.6262 27.546 33.1722 27.308 32.7588L25.5748 33.7568ZM25.6641 34.1016C25.6641 34.2356 25.6338 34.3351 25.5816 34.4231L27.3013 35.4441C27.5459 35.0321 27.6641 34.5769 27.6641 34.1016H25.6641ZM25.5748 34.4346C25.51 34.5472 25.4319 34.6245 25.3332 34.6831L26.3543 36.4028C26.7556 36.1646 27.0759 35.8356 27.308 35.4326L25.5748 34.4346ZM25.3332 34.6831C25.2493 34.733 25.1468 34.7656 25 34.7656V36.7656C25.4782 36.7656 25.9382 36.6499 26.3543 36.4028L25.3332 34.6831Z" fill="white" mask="url(#path-2-outside-1_897_2)"/>
</svg>
