<svg width="24" height="22" viewBox="0 0 24 22" fill="none" xmlns="http://www.w3.org/2000/svg">
<path d="M15.24 2.23157H11.346C9.582 2.23157 8.184 2.23157 7.091 2.36337C5.965 2.49874 5.054 2.78373 4.336 3.42584C3.617 4.06795 3.298 4.88284 3.147 5.8892C3 6.86706 3 8.11655 3 9.69378V14.893C3 16.236 3.92 17.3867 5.227 17.8694C5.16 17.0589 5.16 15.9234 5.16 14.9776V10.5158C5.16 9.37495 5.16 8.39085 5.278 7.60358C5.405 6.7593 5.691 5.95065 6.425 5.29429C7.159 4.63793 8.064 4.38233 9.008 4.26834C9.888 4.16325 10.988 4.16325 12.265 4.16325H15.335C16.611 4.16325 17.709 4.16325 18.59 4.26834C18.3261 3.66834 17.8653 3.15309 17.2678 2.78977C16.6702 2.42645 15.9635 2.23193 15.24 2.23157Z" fill="black"/>
<path d="M6.59998 10.6004C6.59998 8.17265 6.59998 6.95879 7.44398 6.20446C8.28698 5.45013 9.64398 5.45013 12.36 5.45013H15.24C17.955 5.45013 19.313 5.45013 20.157 6.20446C21.001 6.95879 21 8.17265 21 10.6004V14.893C21 17.3207 21 18.5346 20.157 19.2889C19.313 20.0433 17.955 20.0433 15.24 20.0433H12.36C9.64498 20.0433 8.28698 20.0433 7.44398 19.2889C6.59998 18.5346 6.59998 17.3207 6.59998 14.893V10.6004Z" fill="black"/>
</svg>
