<svg width="19" height="18" viewBox="0 0 19 18" fill="none" xmlns="http://www.w3.org/2000/svg">
<path d="M16.6945 18L10.3762 11.7C9.87479 12.1 9.29813 12.4167 8.64624 12.65C7.99436 12.8833 7.30069 13 6.56523 13C4.7433 13 3.20151 12.3707 1.93986 11.112C0.678213 9.85333 0.0470558 8.316 0.0463872 6.5C0.0457187 4.684 0.676876 3.14667 1.93986 1.888C3.20284 0.629333 4.74463 0 6.56523 0C8.38582 0 9.92795 0.629333 11.1916 1.888C12.4553 3.14667 13.0861 4.684 13.0841 6.5C13.0841 7.23333 12.9671 7.925 12.7331 8.575C12.499 9.225 12.1815 9.8 11.7803 10.3L18.0986 16.6L16.6945 18ZM6.56523 11C7.81885 11 8.8846 10.5627 9.76247 9.688C10.6403 8.81333 11.0789 7.75067 11.0783 6.5C11.0776 5.24933 10.639 4.187 9.76247 3.313C8.88594 2.439 7.82019 2.00133 6.56523 2C5.31027 1.99867 4.24485 2.43633 3.36899 3.313C2.49313 4.18967 2.05419 5.252 2.05218 6.5C2.05018 7.748 2.48911 8.81067 3.36899 9.688C4.24887 10.5653 5.31428 11.0027 6.56523 11Z" fill="black"/>
</svg>
